<svg id="Amex" xmlns="http://www.w3.org/2000/svg" width="30" height="30" viewBox="0 0 30 30">
  <path id="Path_6931" data-name="Path 6931" d="M129,131H99V101h30v30Z" transform="translate(-99 -101)" fill="#fff"/>
  <path id="Path_6932" data-name="Path 6932" d="M129,131v-4.754h-3.619l-1.863-2.06-1.873,2.06H109.712v-9.6H105.86l4.777-10.812h4.607l1.645,3.7v-3.7h5.7l.99,2.791,1-2.791H129V101H99v30Zm-3.01-5.956H129l-3.981-4.222L129,116.648h-2.962l-2.459,2.687-2.435-2.687h-3.01l3.958,4.2-3.958,4.2h2.927l2.471-2.711,2.459,2.711Zm.7-4.218L129,123.279v-4.885l-2.306,2.432ZM113.277,123.1v-1.307h4.737v-1.9h-4.737v-1.307h4.857v-1.943h-7.148v8.4h7.148V123.1Zm13.456-7.671H129v-8.4h-3.526l-1.883,5.229-1.871-5.229h-3.586v8.4H120.4v-5.877l2.159,5.877h2.015l2.159-5.889v5.889Zm-11.178,0h2.579l-3.706-8.4h-2.951l-3.706,8.4h2.519l.7-1.679h3.862l.708,1.679Zm-1.5-3.562h-2.279l1.14-2.747,1.139,2.747Z" transform="translate(-99 -101)" fill="#006fcf"/>
</svg>
