<svg id="Call_us" data-name="Call us" xmlns="http://www.w3.org/2000/svg" width="23.15" height="24" viewBox="0 0 23.15 24">
  <path id="Path_2892" data-name="Path 2892" d="M140.262,273.643a2.6,2.6,0,0,1,2.662,1.331c1.088,1.6,2.656,3.783.7,5.408-.508.422-1.75.839-1.8,1.527a11.313,11.313,0,0,0,1.408,3.476,13.435,13.435,0,0,0,2.482,3.146c.736.541,1.545-.374,2.2-.689a2.57,2.57,0,0,1,3.333.834,12.343,12.343,0,0,1,1.772,3.32,2.671,2.671,0,0,1-.561,1.946,12.808,12.808,0,0,1-3.6,2.186,3.564,3.564,0,0,1-2.654-.745,20.838,20.838,0,0,1-10.222-16.42c-.094-1.291-.2-2.59.915-3.479a14.34,14.34,0,0,1,3.359-1.84Z" transform="translate(-135.932 -272.181)" fill="#9667e0"/>
  <path id="Path_2893" data-name="Path 2893" d="M303.836,253.586a8.226,8.226,0,0,1,2.455.523,12.133,12.133,0,0,1,8.012,10.267,10.856,10.856,0,0,1-.12,2.987.867.867,0,0,1-1.7-.251c.009-.569.172-1.217.165-1.827a10.4,10.4,0,0,0-7.6-9.765,5.535,5.535,0,0,1-1.593-.443.882.882,0,0,1,.388-1.49Z" transform="translate(-291.2 -253.573)" fill="#9667e0"/>
  <path id="Path_2894" data-name="Path 2894" d="M296.7,300.814a7.665,7.665,0,0,1,2.39.641,8.634,8.634,0,0,1,5.073,8.756c-.085.661-.382,1.348-1.191,1.085s-.491-1.17-.47-1.782a6.929,6.929,0,0,0-4.943-6.794c-.43-.126-1.157-.155-1.427-.5A.878.878,0,0,1,296.7,300.814Z" transform="translate(-284.493 -297.425)" fill="#9667e0"/>
  <path id="Path_2895" data-name="Path 2895" d="M289.263,348.427a4.512,4.512,0,0,1,2.965,1.141,5.226,5.226,0,0,1,1.762,4.6.854.854,0,0,1-1.352.667c-.556-.362-.291-.906-.3-1.412a3.543,3.543,0,0,0-2.374-3.2c-.359-.114-.828-.1-1.085-.416a.883.883,0,0,1,.385-1.381Z" transform="translate(-277.754 -341.607)" fill="#9667e0"/>
</svg>
