<svg id="Email_us" data-name="Email us" xmlns="http://www.w3.org/2000/svg" width="26.652" height="18" viewBox="0 0 26.652 18">
  <path id="Path_2898" data-name="Path 2898" d="M202.92,332.936c-.053.042-.159.126-.291.233-3,2.407-8.927,8.355-10.787,9.993-.458.4-1.009,1.086-1.664.621L178.53,332.92l.667.012H202.07l.85.005Z" transform="translate(-177.308 -332.92)" fill="#9667e0"/>
  <path id="Path_2899" data-name="Path 2899" d="M207.407,443.722H184.32l7.705-7.5,2.246,2.021a3.065,3.065,0,0,0,.8.354c2.181.563,3.193-1.166,4.633-2.384l7.7,7.512Z" transform="translate(-182.51 -425.722)" fill="#9667e0"/>
  <path id="Path_2900" data-name="Path 2900" d="M166.49,350.321,174.5,357.7l-7.813,7.594a.789.789,0,0,1-.192-.465V350.32Z" transform="translate(-166.49 -348.553)" fill="#9667e0"/>
  <path id="Path_2901" data-name="Path 2901" d="M358.648,350.33v14.56a.653.653,0,0,1-.059.222.641.641,0,0,1-.133.188l-7.756-7.6Z" transform="translate(-331.996 -348.562)" fill="#9667e0"/>
</svg>
