<svg xmlns="http://www.w3.org/2000/svg" width="21.999" height="22" viewBox="0 0 21.999 22">
  <path id="FAQs" d="M117.661,228.89l1.382.186a11.036,11.036,0,0,1,8.827,9l.142,1.126v1.375l-.184,1.341a11.437,11.437,0,0,1-1.483,3.8l.976,3.519a.856.856,0,0,1-.957.957l-3.518-.976a11.494,11.494,0,0,1-3.8,1.483l-1.339.186H116.33a6.353,6.353,0,0,0-.788-.092,11.039,11.039,0,0,1-9.428-9.431,6.355,6.355,0,0,0-.092-.789c.019-.454-.026-.922,0-1.375a11.11,11.11,0,0,1,10.351-10.312h1.288Zm-2,6.288a1.922,1.922,0,0,1,3.154,2.016c-.247.7-.988,1.077-1.473,1.62A5.5,5.5,0,0,0,115.9,242.7a1.127,1.127,0,0,0,1.824.751c.559-.46.364-1.185.56-1.846.439-1.487,1.8-1.879,2.45-3.178a4.174,4.174,0,1,0-7.883-2.214c-.106,1.737,1.875,1.861,2.213.624.186-.679.007-1.059.593-1.663Zm1.133,10.007a1.129,1.129,0,0,0,.451,2.213A1.129,1.129,0,0,0,116.791,245.185Z" transform="translate(-106.013 -228.89)" fill="#9667e0"/>
</svg>
