<svg xmlns="http://www.w3.org/2000/svg" width="30" height="29.667" viewBox="0 0 30 29.667">
  <g id="noun-filter-4025735" transform="translate(-0.529 -0.57)">
    <g id="Group_7245" data-name="Group 7245" transform="translate(0.529 0.571)">
      <path id="Path_6092" data-name="Path 6092" d="M7.726.571A4.147,4.147,0,0,0,3.748,3.634H1.605a1.072,1.072,0,1,0,0,2.143H3.744a4.116,4.116,0,0,0,7.95.052L29.46,5.777a1.072,1.072,0,0,0,0-2.143l-17.736.052A4.152,4.152,0,0,0,7.726.571Zm0,2.143a2,2,0,1,1-2,2,1.981,1.981,0,0,1,2-2Zm11.447,8.212a4.2,4.2,0,0,0-4.037,3.118H1.605a1.072,1.072,0,1,0,0,2.143H15.139a4.169,4.169,0,0,0,8.07,0H29.46a1.072,1.072,0,0,0,0-2.143H23.211a4.2,4.2,0,0,0-4.037-3.118Zm0,2.143a2.048,2.048,0,1,1-2.051,2.045A2.03,2.03,0,0,1,19.174,13.069ZM10.847,21.85A4.206,4.206,0,0,0,6.81,24.968h-5.2a1.072,1.072,0,1,0,0,2.143h5.2a4.171,4.171,0,0,0,8.076,0H29.46a1.072,1.072,0,0,0,0-2.143H14.882a4.2,4.2,0,0,0-4.035-3.118Zm0,2.143A2.051,2.051,0,1,1,8.8,26.044,2.035,2.035,0,0,1,10.847,23.993Z" transform="translate(-0.529 -0.571)" fill="#7f7f7f"/>
    </g>
  </g>
</svg>
