<svg id="Component_92_8" data-name="Component 92 – 8" xmlns="http://www.w3.org/2000/svg" width="80" height="80" viewBox="0 0 80 80">
  <g id="Layer_1" data-name="Layer 1" transform="translate(21 15)">
    <g id="Group_642" data-name="Group 642">
      <path id="Path_2880" data-name="Path 2880" d="M38.092,18.71A18.07,18.07,0,0,0,37.8,15.7,19.01,19.01,0,0,0,23.316.49C22.339.27,21.338.16,20.347,0H17.813c-.142.029-.283.069-.426.085a18.834,18.834,0,0,0-14.7,9.306C.321,13.232-.171,17.484.062,21.883c0,.027.031.055.074.124a5.3,5.3,0,0,0,.641-.1,3,3,0,0,0,2.21-2.926,21.262,21.262,0,0,1,.367-3.337,16.087,16.087,0,0,1,31.809,2.859c.063,3.986.018,7.973.027,11.96a5.253,5.253,0,0,0,.078.97,2.757,2.757,0,0,0,2.671,2.236c.049-.539.141-1.087.143-1.635.018-4.443.036-8.884.012-13.327Z" transform="translate(-0.008 0)" fill="#e82769"/>
      <path id="Path_2881" data-name="Path 2881" d="M132.431,365.3l.56.125h2.632c.188-.033.375-.068.564-.1l2.78-.443-2.5-2.24-4.039,2.654Z" transform="translate(-115.187 -315.421)" fill="#e82769"/>
      <path id="Path_2882" data-name="Path 2882" d="M25.943,102.317a17.356,17.356,0,0,0,.35-5.967,7.3,7.3,0,0,0-14.332-.555,22.57,22.57,0,0,0-.279,2.809,11.722,11.722,0,0,1-9.309,10.35c-.758.146-1.531.208-2.374.32.066.866.118,1.723.214,2.576.012.1.264.273.388.259a24.3,24.3,0,0,0,2.888-.4,14.657,14.657,0,0,0,11.2-14.255,4.376,4.376,0,1,1,8.751.091,24.563,24.563,0,0,1-.5,4.693c-2,8.693-7.263,14.523-15.633,17.527-1.107.4-2.276.62-3.555.96.742.807,1.436,1.576,2.154,2.323a.515.515,0,0,0,.431.057,33.059,33.059,0,0,0,3.289-1.043c8.874-3.724,14.346-10.3,16.314-19.75Z" transform="translate(0 -78.382)" fill="#e82769"/>
      <path id="Path_2883" data-name="Path 2883" d="M32.746,69.648c-.012-3.759.009-7.518-.012-11.277a13.572,13.572,0,0,0-.2-2.572c-1.061-5.3-4.168-8.911-9.34-10.4-5.217-1.5-9.8-.078-13.486,3.931A12.632,12.632,0,0,0,6.39,57.915a5.753,5.753,0,0,1-3.56,5.517,14.459,14.459,0,0,1-2.26.618v2.79c.1.007.165.016.229.014a8.7,8.7,0,0,0,8.23-6.682c.26-1.147.247-2.354.393-3.529a10.241,10.241,0,0,1,20.388,1.44c.021,3.824,0,7.648.013,11.473A9.184,9.184,0,0,0,30,71.495a8.68,8.68,0,0,0,6.228,6.784c.288.092.448.052.562-.242.309-.784.637-1.56.977-2.387-.452-.132-.815-.215-1.163-.342a5.873,5.873,0,0,1-3.859-5.66Z" transform="translate(-0.496 -38.98)" fill="#e82769"/>
      <path id="Path_2884" data-name="Path 2884" d="M26.653,136.859a1.479,1.479,0,0,0-1.449-1.62,1.508,1.508,0,0,0-1.478,1.6c-.021.617-.042,1.237-.109,1.85a17.576,17.576,0,0,1-12.451,14.879c-1.314.384-2.686.568-4.126.863.323.771.669,1.572.993,2.382.111.276.257.335.553.3a19.279,19.279,0,0,0,8.579-3.074A20.263,20.263,0,0,0,26.653,136.859Z" transform="translate(-6.123 -117.63)" fill="#e82769"/>
      <path id="Path_2885" data-name="Path 2885" d="M82.371,294.8a30.867,30.867,0,0,1-13.141,8.736c1.12.611,2.242,1.141,3.375,1.647a.642.642,0,0,0,.453-.048,31.456,31.456,0,0,0,6.814-4.027c.665-.517,1.306-1.065,1.978-1.615.141.176.27.337.4.5A20.528,20.528,0,0,0,87,304.365c.139.092.367.225.467.172.935-.491,1.852-1.018,2.887-1.6a18.635,18.635,0,0,1-7.983-8.138Z" transform="translate(-60.216 -256.415)" fill="#e82769"/>
      <path id="Path_2886" data-name="Path 2886" d="M188.935,245.88c-.04.017-.082.021-.1.043-.654,1.121-1.31,2.242-1.948,3.372a.6.6,0,0,0-.017.448,14.541,14.541,0,0,0,7.889,8.384.472.472,0,0,0,.421-.03c.642-.7,1.26-1.427,1.908-2.169a11.994,11.994,0,0,1-8.156-10.048Z" transform="translate(-162.511 -213.864)" fill="#e82769"/>
    </g>
  </g>
  <g id="Ellipse_72" data-name="Ellipse 72" fill="none" stroke="#e82769" stroke-width="2">
    <circle cx="40" cy="40" r="40" stroke="none"/>
    <circle cx="40" cy="40" r="39" fill="none"/>
  </g>
</svg>
