<svg id="logo_hydepay-reverse" xmlns="http://www.w3.org/2000/svg" width="221" height="39.502" viewBox="0 0 221 39.502">
  <g id="Group_800" data-name="Group 800" transform="translate(61.161 0)">
    <g id="Group_792" data-name="Group 792">
      <path id="Path_2915" data-name="Path 2915" d="M907.981,474.475H897.148V461.9H891.4v30.437h5.748V480.029h10.833v12.308h5.748V461.9h-5.748Z" transform="translate(-891.4 -461.9)"/>
      <path id="Path_2916" data-name="Path 2916" d="M961.058,494.208,956.194,481.5H950.8l7.738,20.128-1.15,3.377a2.572,2.572,0,0,1-.929,1.333,2.763,2.763,0,0,1-1.547.4H953.63v5.554h1.282a10.913,10.913,0,0,0,2.918-.355,4.614,4.614,0,0,0,1.99-1.244,6.98,6.98,0,0,0,1.327-2.355l9.639-26.793h-5.394Z" transform="translate(-924.536 -472.791)"/>
      <path id="Path_2917" data-name="Path 2917" d="M1012.548,473.453a7.122,7.122,0,0,0-1.857-2.088,5.108,5.108,0,0,0-3.139-1.022,6.728,6.728,0,0,0-3.935,1.111,6.863,6.863,0,0,0-2.476,3.244,13.743,13.743,0,0,0-.84,5.11v3.466a13.189,13.189,0,0,0,.84,5.065,6.494,6.494,0,0,0,6.411,4.31,5.387,5.387,0,0,0,3.272-.978,5.445,5.445,0,0,0,1.769-2.088v2.755h5.7V461.9h-5.748Zm-.354,12.353a2.778,2.778,0,0,1-1.105,1.155,3.534,3.534,0,0,1-1.724.4,3.019,3.019,0,0,1-2.476-1.066,4.723,4.723,0,0,1-.884-3.021v-3.466a4.772,4.772,0,0,1,.884-3.066,3.05,3.05,0,0,1,2.476-1.111,3.534,3.534,0,0,1,1.724.4,2.647,2.647,0,0,1,1.105,1.2,4.139,4.139,0,0,1,.354,1.866v4.888A4.61,4.61,0,0,1,1012.194,485.805Z" transform="translate(-952.149 -461.9)"/>
      <path id="Path_2918" data-name="Path 2918" d="M1070.782,492.886a17.875,17.875,0,0,0-1.061-6.532,8.746,8.746,0,0,0-3.051-4.132,8.283,8.283,0,0,0-4.864-1.422,10.484,10.484,0,0,0-5.173,1.2,7.649,7.649,0,0,0-3.228,3.466,12.366,12.366,0,0,0-1.105,5.51v2.444a11.194,11.194,0,0,0,1.15,5.243,7.731,7.731,0,0,0,3.4,3.332,11.613,11.613,0,0,0,5.35,1.155,11.121,11.121,0,0,0,4.245-.844,13.121,13.121,0,0,0,3.8-2.4l-3.714-3.333a7.1,7.1,0,0,1-2.034,1.155,6.711,6.711,0,0,1-2.255.4,4.656,4.656,0,0,1-3.449-1.2,4.262,4.262,0,0,1-1.194-2.622h13.265v-1.422Zm-13.309-2.444a4.746,4.746,0,0,1,1.15-3.2,4.028,4.028,0,0,1,3.184-1.244,3.287,3.287,0,0,1,2.52,1.022,5.253,5.253,0,0,1,1.193,2.888l.044.489h-8.091Z" transform="translate(-981.157 -472.402)"/>
    </g>
  </g>
  <g id="Group_799" data-name="Group 799" transform="translate(156.136 0)">
    <g id="Group_793" data-name="Group 793">
      <path id="Path_2919" data-name="Path 2919" d="M1123.355,463.055a10.633,10.633,0,0,0-5-1.155H1106.2v30.437h5.7V480.518h6.455a10.632,10.632,0,0,0,5-1.155,8.175,8.175,0,0,0,3.36-3.244,9.757,9.757,0,0,0,1.194-4.888,9.641,9.641,0,0,0-1.194-4.888A8.281,8.281,0,0,0,1123.355,463.055Zm-1.813,10.131a3.275,3.275,0,0,1-1.238,1.333,3.453,3.453,0,0,1-1.813.489H1111.9v-7.6h6.588a3.454,3.454,0,0,1,1.813.489,2.915,2.915,0,0,1,1.194,1.333,4.749,4.749,0,0,1,.442,2A3.458,3.458,0,0,1,1121.543,473.186Z" transform="translate(-1106.2 -461.9)" fill="#e82969"/>
      <path id="Path_2920" data-name="Path 2920" d="M1174.772,481.733a11.378,11.378,0,0,0-4.819-.933,12.231,12.231,0,0,0-4.687.844,8.289,8.289,0,0,0-3.4,2.311l3.537,3.51a6.909,6.909,0,0,1,2.122-1.111,7.479,7.479,0,0,1,2.388-.4,4.387,4.387,0,0,1,2.83.8,2.846,2.846,0,0,1,1.017,2.31V490h-5.218c-2.565,0-4.51.533-5.792,1.6a5.931,5.931,0,0,0-1.945,4.843,6.746,6.746,0,0,0,1.725,5.065c1.149,1.111,2.874,1.644,5.217,1.644a10.933,10.933,0,0,0,3.007-.4,5.84,5.84,0,0,0,2.388-1.244,2.314,2.314,0,0,0,.619-.711v2.044h5.173V488.887a8.469,8.469,0,0,0-1.061-4.355A7.284,7.284,0,0,0,1174.772,481.733ZM1172.561,498a8.227,8.227,0,0,1-3.4.533,4.666,4.666,0,0,1-2.476-.533,1.8,1.8,0,0,1-.8-1.6,1.84,1.84,0,0,1,.663-1.555,2.994,2.994,0,0,1,1.946-.533h5.218v2A1.759,1.759,0,0,1,1172.561,498Z" transform="translate(-1136.658 -472.402)" fill="#e82969"/>
      <path id="Path_2921" data-name="Path 2921" d="M1222.335,481.5,1218,494.208l-4.908-12.708H1207.7l7.738,20.128-1.15,3.377a2.572,2.572,0,0,1-.928,1.333,2.763,2.763,0,0,1-1.548.4h-1.282v5.554h1.282a10.912,10.912,0,0,0,2.918-.355,4.613,4.613,0,0,0,1.99-1.244,6.982,6.982,0,0,0,1.327-2.355l9.639-26.793h-5.35Z" transform="translate(-1162.821 -472.791)" fill="#e82969"/>
    </g>
  </g>
  <g id="Group_798" data-name="Group 798">
    <path id="Path_2922" data-name="Path 2922" d="M802.691,511.83a10.273,10.273,0,0,0,9.462-14.13L798.8,511.119A11.4,11.4,0,0,0,802.691,511.83Z" transform="translate(-778.582 -481.793)" fill="#652c8f"/>
    <path id="Path_2923" data-name="Path 2923" d="M794.714,483.2a10.28,10.28,0,0,0-8.357,16.174l14.237-14.308A10.4,10.4,0,0,0,794.714,483.2Z" transform="translate(-770.605 -473.736)" fill="#652c8f"/>
    <g id="Group_795" data-name="Group 795">
      <path id="Path_2924" data-name="Path 2924" d="M819.213,491.62a26.225,26.225,0,0,0-7.34-10.62l-2.52,2.533a22.463,22.463,0,0,1,6.279,8.709,22.587,22.587,0,0,1-7.738,9.864,21.823,21.823,0,0,1-19.853,2.888l-2.741,2.755a24.978,24.978,0,0,0,9.9,2,25.232,25.232,0,0,0,14.768-4.754,26.238,26.238,0,0,0,9.285-12.13A2.392,2.392,0,0,0,819.213,491.62Z" transform="translate(-771.052 -472.513)"/>
      <path id="Path_2925" data-name="Path 2925" d="M796.329,462.433a1.756,1.756,0,0,0-2.52,0l-4.643,4.666a25.362,25.362,0,0,0-26.706,1.777,26.239,26.239,0,0,0-9.285,12.13,2,2,0,0,0,0,1.244,25.963,25.963,0,0,0,9.02,11.953l-4.068,4.088a1.8,1.8,0,0,0,2.565,2.533l35.726-35.9A1.808,1.808,0,0,0,796.329,462.433Zm-27.5,25.1-4.112,4.132c-.088-.044-.133-.089-.221-.133a22.028,22.028,0,0,1-7.738-9.864,22.585,22.585,0,0,1,7.738-9.864,21.718,21.718,0,0,1,21.975-2l-3.4,3.421Z" transform="translate(-753.075 -461.9)"/>
    </g>
  </g>
</svg>
