<svg xmlns="http://www.w3.org/2000/svg" width="143.999" height="25.612" viewBox="0 0 143.999 25.612">
  <g id="Group_620" data-name="Group 620" transform="translate(-12401 774.855)">
    <g id="Group_594" data-name="Group 594" transform="translate(12440.852 -774.855)">
      <path id="Path_2843" data-name="Path 2843" d="M902.2,470.053h-7.058V461.9H891.4v19.735h3.745v-7.98H902.2v7.98h3.745V461.9H902.2Z" transform="translate(-891.4 -461.9)"/>
      <path id="Path_2844" data-name="Path 2844" d="M957.484,489.74l-3.169-8.24H950.8l5.042,13.051-.749,2.19a1.668,1.668,0,0,1-.605.864,1.806,1.806,0,0,1-1.008.259h-.836v3.6h.836a7.147,7.147,0,0,0,1.9-.23,3.009,3.009,0,0,0,1.3-.807,4.523,4.523,0,0,0,.864-1.527l6.281-17.372h-3.515Z" transform="translate(-933.687 -475.853)"/>
      <path id="Path_2845" data-name="Path 2845" d="M1008.28,469.391a4.626,4.626,0,0,0-1.21-1.354,3.339,3.339,0,0,0-2.045-.663,4.4,4.4,0,0,0-2.564.72,4.453,4.453,0,0,0-1.613,2.1,8.87,8.87,0,0,0-.547,3.313v2.247a8.513,8.513,0,0,0,.547,3.284,4.231,4.231,0,0,0,4.177,2.795,3.521,3.521,0,0,0,3.284-1.988v1.786h3.716V461.9h-3.745Zm-.23,8.009a1.806,1.806,0,0,1-.72.749,2.313,2.313,0,0,1-1.124.259,1.971,1.971,0,0,1-1.613-.691,3.052,3.052,0,0,1-.576-1.959V473.51a3.084,3.084,0,0,1,.576-1.988,1.991,1.991,0,0,1,1.613-.72,2.312,2.312,0,0,1,1.124.259,1.72,1.72,0,0,1,.72.778,2.673,2.673,0,0,1,.23,1.21v3.169A2.974,2.974,0,0,1,1008.05,477.4Z" transform="translate(-968.926 -461.9)"/>
      <path id="Path_2846" data-name="Path 2846" d="M1064.343,488.636a11.537,11.537,0,0,0-.692-4.235,5.672,5.672,0,0,0-1.988-2.679,5.415,5.415,0,0,0-3.169-.922,6.857,6.857,0,0,0-3.371.778,4.968,4.968,0,0,0-2.1,2.247,7.984,7.984,0,0,0-.72,3.572v1.585a7.228,7.228,0,0,0,.749,3.4,5.027,5.027,0,0,0,2.218,2.161,7.6,7.6,0,0,0,3.486.749,7.276,7.276,0,0,0,2.766-.547,8.557,8.557,0,0,0,2.478-1.556l-2.42-2.161a4.63,4.63,0,0,1-1.325.749,4.389,4.389,0,0,1-1.469.259,3.043,3.043,0,0,1-2.247-.778,2.758,2.758,0,0,1-.778-1.7h8.643v-.922Zm-8.672-1.585a3.067,3.067,0,0,1,.749-2.074,2.63,2.63,0,0,1,2.074-.807,2.147,2.147,0,0,1,1.642.663,3.4,3.4,0,0,1,.778,1.873l.029.317h-5.272Z" transform="translate(-1005.945 -475.355)"/>
    </g>
    <g id="Group_595" data-name="Group 595" transform="translate(12502.735 -774.855)">
      <path id="Path_2847" data-name="Path 2847" d="M1117.378,462.649a6.956,6.956,0,0,0-3.255-.749H1106.2v19.735h3.717v-7.663h4.206a6.955,6.955,0,0,0,3.255-.749,5.316,5.316,0,0,0,2.19-2.1,6.3,6.3,0,0,0,.778-3.169,6.228,6.228,0,0,0-.778-3.169A5.383,5.383,0,0,0,1117.378,462.649Zm-1.181,6.569a2.129,2.129,0,0,1-.807.864,2.259,2.259,0,0,1-1.181.317h-4.293v-4.927h4.293a2.259,2.259,0,0,1,1.181.317,1.891,1.891,0,0,1,.778.864,3.064,3.064,0,0,1,.288,1.3A2.235,2.235,0,0,1,1116.2,469.218Z" transform="translate(-1106.2 -461.9)" fill="#9667e0"/>
      <path id="Path_2848" data-name="Path 2848" d="M1169.9,481.4a7.447,7.447,0,0,0-3.14-.6,8.005,8.005,0,0,0-3.054.547,5.4,5.4,0,0,0-2.218,1.5l2.3,2.276a4.508,4.508,0,0,1,1.383-.72,4.894,4.894,0,0,1,1.556-.259,2.869,2.869,0,0,1,1.844.519,1.841,1.841,0,0,1,.663,1.5v.605h-3.4a5.839,5.839,0,0,0-3.774,1.037,3.835,3.835,0,0,0-1.268,3.14,4.362,4.362,0,0,0,1.124,3.284,4.719,4.719,0,0,0,3.4,1.066,7.156,7.156,0,0,0,1.959-.259,3.812,3.812,0,0,0,1.556-.807,1.5,1.5,0,0,0,.4-.461v1.325h3.371v-9.046a5.47,5.47,0,0,0-.692-2.823A4.739,4.739,0,0,0,1169.9,481.4Zm-1.441,10.544a5.385,5.385,0,0,1-2.218.346,3.052,3.052,0,0,1-1.613-.346,1.164,1.164,0,0,1-.519-1.037,1.19,1.19,0,0,1,.432-1.008,1.958,1.958,0,0,1,1.268-.346h3.4v1.3A1.141,1.141,0,0,1,1168.464,491.949Z" transform="translate(-1145.07 -475.355)" fill="#9667e0"/>
      <path id="Path_2849" data-name="Path 2849" d="M1217.236,481.5l-2.823,8.24-3.2-8.24H1207.7l5.042,13.051-.749,2.19a1.667,1.667,0,0,1-.605.864,1.806,1.806,0,0,1-1.008.259h-.836v3.6h.836a7.143,7.143,0,0,0,1.9-.23,3.009,3.009,0,0,0,1.3-.807,4.521,4.521,0,0,0,.864-1.527l6.28-17.372h-3.486Z" transform="translate(-1178.458 -475.853)" fill="#9667e0"/>
    </g>
    <g id="Group_619" data-name="Group 619" transform="translate(12401 -774.855)">
      <g id="Group_603" data-name="Group 603" transform="translate(0 0)">
        <g id="Group_599" data-name="Group 599" transform="translate(0 1.439)">
          <g id="Group_600" data-name="Group 600" transform="translate(2.412 2.326)">
            <path id="Path_2862" data-name="Path 2862" d="M25.92,49.491a14.579,14.579,0,0,0,5.048,6.384,14.237,14.237,0,0,0,16.529,0,14.579,14.579,0,0,0,5.048-6.384A14.572,14.572,0,0,0,47.5,43.107a14.229,14.229,0,0,0-16.529,0,14.572,14.572,0,0,0-5.048,6.383Z" transform="translate(-25.92 -40.461)" fill="#fff"/>
          </g>
          <path id="Path_2861" data-name="Path 2861" d="M104.044,79.208a6.664,6.664,0,1,1,6.664-6.664A6.664,6.664,0,0,1,104.044,79.208Z" transform="translate(-88.319 -61.188)" fill="#652c8f"/>
          <ellipse id="Ellipse_1" data-name="Ellipse 1" cx="1.141" cy="1.141" rx="1.141" ry="1.141" transform="translate(14.584 10.215)"/>
          <path id="Path_2862-2" data-name="Path 2862" d="M15.727,38.171a16.476,16.476,0,0,1-9.616-3.078,16.907,16.907,0,0,1-6.036-7.87,1.17,1.17,0,0,1,0-.815,16.907,16.907,0,0,1,6.036-7.87,16.555,16.555,0,0,1,19.23,0,16.9,16.9,0,0,1,6.036,7.87,1.159,1.159,0,0,1,0,.815,16.9,16.9,0,0,1-6.036,7.87,16.475,16.475,0,0,1-9.614,3.078ZM2.414,26.815A14.579,14.579,0,0,0,7.462,33.2a14.237,14.237,0,0,0,16.529,0,14.579,14.579,0,0,0,5.048-6.384,14.572,14.572,0,0,0-5.048-6.383,14.229,14.229,0,0,0-16.529,0A14.572,14.572,0,0,0,2.414,26.815Z" transform="translate(-0.002 -15.459)"/>
        </g>
        <g id="Group_602" data-name="Group 602" transform="translate(0.001)">
          <g id="Group_601" data-name="Group 601" transform="translate(0 1.439)">
            <ellipse id="Ellipse_1-2" data-name="Ellipse 1" cx="1.141" cy="1.141" rx="1.141" ry="1.141" transform="translate(14.584 10.215)"/>
            <path id="Path_2861-2" data-name="Path 2861" d="M104.044,79.208a6.664,6.664,0,1,1,6.664-6.664A6.664,6.664,0,0,1,104.044,79.208Z" transform="translate(-88.319 -61.188)" fill="#9667e0"/>
            <path id="Path_2862-3" data-name="Path 2862" d="M15.727,38.171a16.476,16.476,0,0,1-9.616-3.078,16.907,16.907,0,0,1-6.036-7.87,1.17,1.17,0,0,1,0-.815,16.907,16.907,0,0,1,6.036-7.87,16.555,16.555,0,0,1,19.23,0,16.9,16.9,0,0,1,6.036,7.87,1.159,1.159,0,0,1,0,.815,16.9,16.9,0,0,1-6.036,7.87,16.475,16.475,0,0,1-9.614,3.078ZM2.414,26.815A14.579,14.579,0,0,0,7.462,33.2a14.237,14.237,0,0,0,16.529,0,14.579,14.579,0,0,0,5.048-6.384,14.572,14.572,0,0,0-5.048-6.383,14.229,14.229,0,0,0-16.529,0A14.572,14.572,0,0,0,2.414,26.815Z" transform="translate(-0.002 -15.459)"/>
          </g>
          <path id="Path_2865" data-name="Path 2865" d="M32.66,25.587a1.163,1.163,0,0,1-.823-1.986L55.1.339a1.163,1.163,0,0,1,1.645,1.645L33.483,25.247A1.159,1.159,0,0,1,32.66,25.587Z" transform="translate(-28.566 0.002)"/>
          <path id="Path_2866" data-name="Path 2866" d="M60.694,34.328a.7.7,0,0,1-.493-1.191L83.463,9.874a.7.7,0,0,1,.986.986L61.187,34.123A.692.692,0,0,1,60.694,34.328Z" transform="translate(-54.414 -8.786)" fill="#fff"/>
        </g>
      </g>
    </g>
  </g>
</svg>
